<?xml version="1.0" encoding="UTF-8"?>
<svg xmlns="http://www.w3.org/2000/svg" width="420" height="140" viewBox="0 0 420 140">
  <rect width="100%" height="100%" fill="#0b0c0f" rx="6" />
  <text x="12" y="20" fill="#c9d1d9" font-size="16" font-family="Arial,Helvetica,sans-serif">Top Languages</text>
  <text x="12" y="52" fill="#c9d1d9" font-size="12" font-family="Arial,Helvetica,sans-serif">Python</text>
  <rect x="140" y="40" width="267" height="16" rx="4" fill="#3572A5" />
  <text x="413" y="52" fill="#c9d1d9" font-size="12" font-family="Arial,Helvetica,sans-serif">99%</text>
  <text x="12" y="76" fill="#c9d1d9" font-size="12" font-family="Arial,Helvetica,sans-serif">CSS</text>
  <rect x="140" y="64" width="0" height="16" rx="4" fill="#563d7c" />
  <text x="146" y="76" fill="#c9d1d9" font-size="12" font-family="Arial,Helvetica,sans-serif">0%</text>
  <text x="12" y="100" fill="#c9d1d9" font-size="12" font-family="Arial,Helvetica,sans-serif">Nushell</text>
  <rect x="140" y="88" width="0" height="16" rx="4" fill="#172b53" />
  <text x="146" y="100" fill="#c9d1d9" font-size="12" font-family="Arial,Helvetica,sans-serif">0%</text>
  <text x="12" y="124" fill="#c9d1d9" font-size="12" font-family="Arial,Helvetica,sans-serif">Shell</text>
  <rect x="140" y="112" width="0" height="16" rx="4" fill="#89e051" />
  <text x="146" y="124" fill="#c9d1d9" font-size="12" font-family="Arial,Helvetica,sans-serif">0%</text>
  <text x="12" y="148" fill="#c9d1d9" font-size="12" font-family="Arial,Helvetica,sans-serif">JavaScript</text>
  <rect x="140" y="136" width="0" height="16" rx="4" fill="#f1e05a" />
  <text x="146" y="148" fill="#c9d1d9" font-size="12" font-family="Arial,Helvetica,sans-serif">0%</text>
  <text x="12" y="172" fill="#c9d1d9" font-size="12" font-family="Arial,Helvetica,sans-serif">PowerShell</text>
  <rect x="140" y="160" width="0" height="16" rx="4" fill="#3d265b" />
  <text x="146" y="172" fill="#c9d1d9" font-size="12" font-family="Arial,Helvetica,sans-serif">0%</text>
</svg>